<?xml version="1.0" encoding="UTF-8"?>
<svg id="_レイヤー_1" xmlns="http://www.w3.org/2000/svg" version="1.1" viewBox="0 0 80 60">
  <!-- Generator: Adobe Illustrator 29.8.2, SVG Export Plug-In . SVG Version: 2.1.1 Build 3)  -->
  <defs>
    <style>
      .st0 {
        fill: #06c26c;
        stroke: #fff;
        stroke-width: .5px;
      }
    </style>
  </defs>
  <rect class="st0" x="6.79" y="46.96" width="3.88" height="4.13"/>
  <rect class="st0" x="6.79" y="18.27" width="3.88" height="28.69"/>
  <rect class="st0" x="6.79" y="13.47" width="3.88" height="4.8"/>
  <rect class="st0" x="6.79" y="9.69" width="3.88" height="3.78"/>
  <rect class="st0" x="10.85" y="47.9" width="24.75" height="3.19"/>
  <rect class="st0" x="10.85" y="21.69" width="24.75" height="26.21"/>
  <rect class="st0" x="10.85" y="13.71" width="24.75" height="7.98"/>
  <rect class="st0" x="10.85" y="9.69" width="24.75" height="4.02"/>
  <rect class="st0" x="35.79" y="48.45" width="21.72" height="2.64"/>
  <rect class="st0" x="35.79" y="15.31" width="21.72" height="33.14"/>
  <rect class="st0" x="35.79" y="13.16" width="21.72" height="2.15"/>
  <rect class="st0" x="35.79" y="9.69" width="21.72" height="3.47"/>
  <rect class="st0" x="57.68" y="47.08" width="15.53" height="4.01"/>
  <rect class="st0" x="57.68" y="18.73" width="15.53" height="28.34"/>
  <rect class="st0" x="57.68" y="12.97" width="15.53" height="5.77"/>
  <rect class="st0" x="57.68" y="9.69" width="15.53" height="3.28"/>
</svg>