<?xml version="1.0" encoding="UTF-8"?>
<svg id="_レイヤー_1" data-name="レイヤー_1" xmlns="http://www.w3.org/2000/svg" version="1.1" viewBox="0 0 800 500">
  <!-- Generator: Adobe Illustrator 29.8.2, SVG Export Plug-In . SVG Version: 2.1.1 Build 3)  -->
  <defs>
    <style>
      .st0 {
        fill: #fc8d62;
      }

      .st0, .st1, .st2, .st3 {
        stroke: #fff;
        stroke-width: .5px;
      }

      .st1 {
        fill: #66c2a5;
      }

      .st2 {
        fill: #8da0cb;
      }

      .st3 {
        fill: #e78ac3;
      }
    </style>
  </defs>
  <rect class="st3" x="31" y="434.16" width="43.15" height="45.84"/>
  <rect class="st2" x="31" y="115.4" width="43.15" height="318.76"/>
  <rect class="st0" x="31" y="62.03" width="43.15" height="53.38"/>
  <rect class="st1" x="31" y="20" width="43.15" height="42.03"/>
  <rect class="st3" x="76.15" y="444.57" width="275.04" height="35.43"/>
  <rect class="st2" x="76.15" y="153.4" width="275.04" height="291.17"/>
  <rect class="st0" x="76.15" y="64.69" width="275.04" height="88.7"/>
  <rect class="st1" x="76.15" y="20" width="275.04" height="44.69"/>
  <rect class="st3" x="353.19" y="450.67" width="241.28" height="29.33"/>
  <rect class="st2" x="353.19" y="82.47" width="241.28" height="368.21"/>
  <rect class="st0" x="353.19" y="58.52" width="241.28" height="23.94"/>
  <rect class="st1" x="353.19" y="20" width="241.28" height="38.52"/>
  <rect class="st3" x="596.47" y="435.45" width="172.53" height="44.55"/>
  <rect class="st2" x="596.47" y="120.5" width="172.53" height="314.94"/>
  <rect class="st0" x="596.47" y="56.43" width="172.53" height="64.07"/>
  <rect class="st1" x="596.47" y="20" width="172.53" height="36.43"/>
</svg>